<svg data-icon-name="cloudgeminichatIcon" width="24" height="24" viewBox="0 0 256 256" aria-hidden="true"><path d="M128 256q0-26.56-10.24-49.92-9.92-23.36-27.2-40.64c-17.28-17.28-25.067-20.587-40.64-27.2Q26.56 128 0 128q26.56 0 49.92-9.92 23.36-10.24 40.64-27.52c17.28-17.28 20.587-25.067 27.2-40.64Q128 26.56 128 0q0 26.56 9.92 49.92 10.24 23.36 27.52 40.64c17.28 17.28 25.067 20.693 40.64 27.52Q229.44 128 256 128q-26.56 0-49.92 10.24-23.36 9.92-40.64 27.2c-17.28 17.28-20.693 25.067-27.52 40.64Q128 229.44 128 256"></path></svg>
